<?xml version="1.0" encoding="utf-8"?>
<!-- Generator: Adobe Illustrator 25.2.1, SVG Export Plug-In . SVG Version: 6.00 Build 0)  -->
<svg version="1.1" id="Layer_1" xmlns="http://www.w3.org/2000/svg" xmlns:xlink="http://www.w3.org/1999/xlink" x="0px" y="0px"
	 viewBox="0 0 190.98 166.75" style="enable-background:new 0 0 190.98 166.75;" xml:space="preserve">
<style type="text/css">
	.st0{fill:#FFFFFF;stroke:#000000;stroke-width:0.25;stroke-miterlimit:10;}
	.st1{fill:none;stroke:#000000;stroke-width:0.25;stroke-miterlimit:10;}
	.st2{fill:none;}
</style>
<circle class="st0" cx="1753.88" cy="-183.16" r="1.5"/>
<g>
	<line class="st1" x1="4.57" y1="3.9" x2="119.63" y2="37.64"/>
	<ellipse class="st0" cx="121.61" cy="37.76" rx="1.51" ry="1.48"/>
	<ellipse class="st0" cx="4.57" cy="3.9" rx="1.51" ry="1.48"/>
	<ellipse class="st0" cx="182.55" cy="56.48" rx="1.51" ry="1.48"/>
</g>
<path class="st1" d="M4.57,69.96c0,0-11.51-54,52.49-50c0,0,107,38,73,94"/>
<circle class="st0" cx="540.04" cy="22.28" r="1.5"/>
<path class="st0" d="M176.49,4.7"/>
<rect x="3.06" y="69.96" class="st0" width="3" height="3"/>
<line class="st1" x1="88.06" y1="159.96" x2="181.55" y2="56.96"/>
<rect x="129.06" y="110.96" class="st0" width="3" height="3"/>
<rect x="967.59" y="41.05" class="st2" width="375.83" height="294.13"/>
<text transform="matrix(1 0 0 1 967.5958 47.7852)" style="font-family:'CourierNewPSMT'; font-size:11px;">&lt;body&gt;</text>
<text transform="matrix(1 0 0 1 967.5958 60.9852)" style="font-family:'CourierNewPSMT'; font-size:11px;">&lt;nav&gt;</text>
<text transform="matrix(1 0 0 1 967.5958 74.1852)" style="font-family:'CourierNewPSMT'; font-size:11px;">&lt;div class=&quot;menu-open&quot;&gt;</text>
<text transform="matrix(1 0 0 1 967.5958 87.3853)" style="font-family:'CourierNewPSMT'; font-size:11px;">&lt;div class=&quot;burger-line&quot;&gt;&lt;/div&gt;</text>
<text transform="matrix(1 0 0 1 967.5958 113.7851)" style="opacity:0.64;enable-background:new    ; font-family:'CourierNewPSMT'; font-size:11px;">&lt;/div&gt;</text>
<text transform="matrix(1 0 0 1 967.5958 140.1852)" style="opacity:0.64;enable-background:new    ; font-family:'CourierNewPSMT'; font-size:11px;">&lt;ul class=&quot;menu&quot;&gt;</text>
<text transform="matrix(1 0 0 1 967.5958 166.5852)" style="opacity:0.64;enable-background:new    ; font-family:'CourierNewPSMT'; font-size:11px; letter-spacing:28;"> </text>
<text transform="matrix(1 0 0 1 1003.5958 166.5852)" style="opacity:0.64;enable-background:new    ; font-family:'CourierNewPSMT'; font-size:11px;">...</text>
<text transform="matrix(1 0 0 1 967.5958 179.7852)" style="opacity:0.64;enable-background:new    ; font-family:'CourierNewPSMT'; font-size:11px; letter-spacing:28;"> </text>
<text transform="matrix(1 0 0 1 967.5958 192.9852)" style="opacity:0.71;enable-background:new    ; font-family:'CourierNewPSMT'; font-size:11px;">&lt;/ul&gt;</text>
<text transform="matrix(1 0 0 1 967.5958 206.1852)" style="opacity:0.71;enable-background:new    ; font-family:'CourierNewPSMT'; font-size:11px;">&lt;/body&gt;</text>
<rect x="56.06" y="17.96" class="st0" width="3" height="3"/>
<circle class="st0" cx="88.06" cy="159.96" r="1.51"/>
</svg>
