<svg xmlns="http://www.w3.org/2000/svg" viewBox="0 0 169.56 77.97"><defs><style>.cls-1{fill:none;stroke:#000;stroke-miterlimit:10;stroke-width:0.25px;}</style></defs><g id="Layer_2" data-name="Layer 2"><g id="Layer_1-2" data-name="Layer 1"><path class="cls-1" d="M.63,4.22s-1,18.7,0,23.85S2.74,65.5.19,65.86s75.44,7.36,78.44,3.36,7.07-63.4,4.53-67.7S.63,4.22.63,4.22Z"/><path class="cls-1" d="M7.63,14.22s-2,26.26,0,27.13,38.83,0,38.83,0,2.83-24.13,0-27.13S7.63,14.22,7.63,14.22Z"/><path class="cls-1" d="M10.63,17.22S40.45,34.41,42,39.82"/><path class="cls-1" d="M10.63,37.78s26.23-22.56,31-22.56"/><path class="cls-1" d="M89.35,12.89S114.4,9.82,121,28.52"/><path class="cls-1" d="M114.63,26.22c-.42-.42,2,4.51,6,4,3.83-.47,2.05-6.08,3-7"/><path class="cls-1" d="M108.76,39.82s-1.87,26,0,33.19,56.87,4.21,56.87,4.21,7-37.93,2-40S108.76,39.82,108.76,39.82Z"/><path class="cls-1" d="M113.86,49c11.77.21,28.6,0,28.6,0"/><path class="cls-1" d="M113.86,53.61c0,.16,27.72,1.77,27.77,1.6"/><path class="cls-1" d="M114.63,58.22c0-1.11,14.2,3.33,27,0"/></g></g></svg>