<?xml version="1.0" encoding="UTF-8"?>
<svg width="170px" height="25px" viewBox="0 0 170 25" version="1.1" xmlns="http://www.w3.org/2000/svg" xmlns:xlink="http://www.w3.org/1999/xlink">
    <!-- Generator: Sketch 53.2 (72643) - https://sketchapp.com -->
    <title>logo</title>
    <desc>Created with Sketch.</desc>
    <g id="Page-1" stroke="none" stroke-width="1" fill="none" fill-rule="evenodd">
        <g id="logo" fill-rule="nonzero">
            <polygon id="Path" fill="#F7BC00" points="0.408 6.1 4.37466667 6.09230769 4.39733333 18.5576923 0.430666667 18.5653846"></polygon>
            <path d="M2.36866667,0.384615385 C1.83702494,0.365823633 1.32332401,0.581753386 0.959555556,0.976923077 C0.567595179,1.35262493 0.355292576,1.88316311 0.377777778,2.43076923 C0.365130318,2.97095004 0.576279691,3.49162675 0.959555556,3.86538462 C1.33996912,4.24718988 1.85337683,4.4601418 2.38755556,4.45769231 C2.92022963,4.47608817 3.43493735,4.26031371 3.80044444,3.86538462 C4.1855458,3.49318991 4.3959025,2.97107753 4.37844444,2.43076923 C4.39182659,1.88557622 4.18253584,1.35914622 3.80044444,0.976923077 C3.424499,0.585907109 2.90594854,0.371389583 2.36866667,0.384615385 Z" id="Path" fill="#F7BC00"></path>
            <path d="M71.6682222,0.384615385 C71.1392738,0.368561322 70.6289602,0.584223605 70.2666667,0.976923077 C69.8747063,1.35262493 69.6624037,1.88316311 69.6848889,2.43076923 C69.6722414,2.97095004 69.8833908,3.49162675 70.2666667,3.86538462 C70.6470802,4.24718988 71.1604879,4.4601418 71.6946667,4.45769231 C72.2273407,4.47608817 72.7420485,4.26031371 73.1075556,3.86538462 C73.4857132,3.48980698 73.689022,2.96813987 73.6666667,2.43076923 C73.6800488,1.88557622 73.4707581,1.35914622 73.0886667,0.976923077 C72.7162099,0.587696543 72.2018487,0.373214295 71.6682222,0.384615385 Z" id="Path" fill="#1A237E"></path>
            <path d="M14.8655556,9.38461538 L14.8655556,12.2730769 C14.8655556,12.2730769 19.6708889,12.3307692 20.196,12.3307692 C19.8307736,13.1087267 19.2958362,13.7914743 18.632,14.3269231 C18.0351111,14.7923077 16.8866667,15.0346154 15.9497778,15.0346154 C14.7683268,15.0929658 13.619714,14.6288505 12.7991111,13.7615385 C12.0057778,12.9076923 11.6242222,11.7576923 11.6242222,10.3384615 C11.565664,9.09194819 11.9779409,7.86988857 12.7764444,6.92307692 C13.5760169,6.01203778 14.7233889,5.49738353 15.9233333,5.51153846 C16.6796025,5.53129699 17.4234228,5.71210161 18.1068889,6.04230769 C18.6470693,6.35692469 19.0755426,6.83758383 19.3308889,7.41538462 L23.6904444,7.41538462 C23.1351111,5.7 22.3531111,4.37692308 20.9364444,3.39615385 C19.4296037,2.42973047 17.6814931,1.925045 15.9006667,1.94230769 C14.4367733,1.93149153 12.9945109,2.30222435 11.7111111,3.01923077 C10.4551758,3.71657139 9.41016799,4.74990558 8.68888889,6.00769231 C7.93021957,7.31059506 7.53814314,8.80084031 7.55555556,10.3153846 C7.54011184,11.8272493 7.93209758,13.3144892 8.68888889,14.6153846 C9.41131601,15.8712713 10.4561255,16.9030798 11.7111111,17.6 C13.0000367,18.3168348 14.4471165,18.6874691 15.9157778,18.6769231 C17.2189105,18.6979398 18.504637,18.3703588 19.6444444,17.7269231 C20.70307,17.129877 21.6270712,16.313621 22.3568889,15.3307692 C23.0053341,14.4722791 23.4582549,13.4777871 23.6828889,12.4192308 C23.8831935,11.4213408 23.9618613,10.4021104 23.9171111,9.38461538 L14.8655556,9.38461538 Z" id="Path" fill="#1A237E"></path>
            <path d="M35.6773333,13.7615385 C35.4419153,14.2227232 35.0725414,14.5987826 34.6195556,14.8384615 C33.778738,15.3308687 32.7441509,15.3308687 31.9033333,14.8384615 C31.4552332,14.5920503 31.0875861,14.217749 30.8455556,13.7615385 C30.5585209,13.221587 30.4177077,12.6136266 30.4375556,12 C30.4177077,11.3863734 30.5585209,10.778413 30.8455556,10.2384615 C31.0831369,9.77889506 31.4519369,9.40341995 31.9033333,9.16153846 C32.3115761,8.91746278 32.7748584,8.7849719 33.2482222,8.77692308 C33.7303566,8.78190549 34.2029319,8.91444782 34.6195556,9.16153846 C35.0666061,9.40938146 35.4338964,9.78331958 35.6773333,10.2384615 C35.964368,10.778413 36.1051812,11.3863734 36.0853333,12 C36.1130336,12.6143972 35.9717313,13.2244693 35.6773333,13.7615385 L35.6773333,13.7615385 Z M36.0853333,5.49230769 L36.0853333,7.59230769 C35.1975556,6.36538462 33.9244444,5.38461538 32.2848889,5.38461538 C31.2408333,5.38428175 30.2175147,5.68137942 29.3306667,6.24230769 C28.4235502,6.81691035 27.6870364,7.6319008 27.2,8.6 C26.6562609,9.66833042 26.3847712,10.8585845 26.4104444,12.0615385 C26.3854173,13.2644242 26.6568703,14.4545179 27.2,15.5230769 C27.6980616,16.4839202 28.4370977,17.2933938 29.342,17.8692308 C30.2310275,18.4220371 31.25454,18.7098634 32.2962222,18.7 C33.8828889,18.7 35.1333333,17.6346154 36.0966667,16.2615385 L36.0966667,18.5307692 L40.0444444,18.5307692 L40.0444444,5.49230769 L36.0853333,5.49230769 Z" id="Shape" fill="#1A237E"></path>
            <path d="M64.6188889,6.76538462 C63.6249697,5.76357745 62.2646983,5.23081949 60.8675556,5.29615385 C59.9672617,5.29230923 59.0816445,5.52832847 58.2986667,5.98076923 C57.5301638,6.4244938 56.8812944,7.05471925 56.4097778,7.81538462 C56.0159539,7.03534784 55.4066453,6.3896093 54.6568889,5.95769231 C53.8714585,5.50702293 52.9818597,5.27860589 52.0804444,5.29615385 C51.2696952,5.28299565 50.468534,5.47600478 49.7495556,5.85769231 C49.0986165,6.21146429 48.5512042,6.73428368 48.1628889,7.37307692 L48.1628889,5.45 L44.2,5.45 L44.2226667,18.4692308 L48.1855556,18.4692308 L48.1855556,11.4153846 C48.1437598,10.7009429 48.3783523,9.99823309 48.8391111,9.45769231 C49.324494,8.97607709 49.9873377,8.72598082 50.6637778,8.76923077 C51.3472249,8.7242051 52.0177305,8.97408819 52.5111111,9.45769231 C52.9801245,9.99440501 53.2218226,10.6980624 53.1835556,11.4153846 L53.1835556,18.4846154 L57.12,18.4846154 L57.12,11.4153846 C57.0767594,10.7014138 57.3100249,9.99861639 57.7697778,9.45769231 C58.2549015,8.97565974 58.9179338,8.72549226 59.5944444,8.76923077 C60.2703237,8.72982463 60.9316931,8.97936467 61.4191111,9.45769231 C61.8924129,9.99204133 62.1359325,10.697041 62.0953333,11.4153846 L62.0953333,18.4846154 L66.0355556,18.4846154 L66.0128889,10.8769231 C66.0128889,9.11153846 65.5293333,7.74615385 64.6188889,6.76538462 Z" id="Path" fill="#1A237E"></path>
            <polygon id="Path" fill="#1A237E" points="69.6848889 6.09615385 73.6515556 6.09230769 73.6704444 18.4346154 69.7075556 18.4423077"></polygon>
            <path d="M89.6768889,7.84230769 C89.2783538,7.04869513 88.6716081,6.38304044 87.924,5.91923077 C87.1324443,5.46708872 86.2360466,5.23992952 85.3286667,5.26153846 C84.5176207,5.24557774 83.7157877,5.43874871 82.9977778,5.82307692 C82.3452349,6.17456639 81.7972914,6.69789309 81.4111111,7.33846154 L81.4111111,5.41538462 L77.4444444,5.41538462 L77.4708889,18.4346154 L81.4375556,18.4346154 L81.4375556,11.3653846 C81.394491,10.6521027 81.6262292,9.94982377 82.0835556,9.40769231 C82.5726737,8.92750766 83.2376802,8.67902597 83.9157778,8.72307692 C84.5958972,8.68065349 85.2626094,8.92874943 85.7555556,9.40769231 C86.2274899,9.94265092 86.4696251,10.647581 86.428,11.3653846 L86.428,18.4384615 L90.372,18.4384615 L90.3455556,10.8269231 C90.3672386,9.79119525 90.1375611,8.76602241 89.6768889,7.84230769 Z" id="Path" fill="#1A237E"></path>
            <path d="M102.729111,13.6384615 C102.495733,14.101164 102.12581,14.4777825 101.671333,14.7153846 C101.265166,14.9611209 100.802655,15.0937638 100.330222,15.1 C99.847694,15.0979045 99.3743987,14.9651602 98.9588889,14.7153846 C98.509169,14.4711928 98.1409617,14.0963211 97.9011111,13.6384615 C97.6126566,13.1004523 97.4717288,12.4933256 97.4931111,11.8807692 C97.4712327,11.2669384 97.6121702,10.6584414 97.9011111,10.1192308 C98.1344892,9.65652826 98.5044122,9.27990982 98.9588889,9.04230769 C99.7983304,8.54979832 100.831892,8.54979832 101.671333,9.04230769 C102.121053,9.28649947 102.489261,9.66137118 102.729111,10.1192308 C103.01674,10.6588162 103.156367,11.2672917 103.133333,11.8807692 C103.155871,12.4929725 103.016253,13.1000778 102.729111,13.6384615 L102.729111,13.6384615 Z M103.133333,5.38461538 L103.133333,7.48076923 C102.241778,6.25769231 100.968667,5.26538462 99.3366667,5.26538462 C98.2917497,5.26358806 97.2671629,5.55934179 96.3786667,6.11923077 C95.4671902,6.6992133 94.7280148,7.5209067 94.2404444,8.49615385 C93.6946302,9.56384739 93.421791,10.754322 93.4471111,11.9576923 C93.422441,13.1609935 93.6952431,14.3513063 94.2404444,15.4192308 C94.7345245,16.3827274 95.4727865,17.1941097 96.3786667,17.7692308 C97.2694435,18.3216157 98.2936826,18.6106102 99.3366667,18.6038462 C100.923333,18.6038462 102.173778,17.5346154 103.133333,16.1615385 L103.133333,18.3576923 C103.133333,19.4115385 102.895333,20.1923077 102.411778,20.6653846 C101.937746,21.1549695 101.2847,21.4211947 100.609778,21.4 C99.1213333,21.4 98.2071111,20.9153846 97.8217778,19.9307692 L93.908,19.9307692 C94.0742222,21.5961538 94.7277778,22.8192308 95.8762222,23.6307692 C97.0246667,24.4423077 98.6226667,24.8269231 100.590889,24.8269231 C102.804667,24.8269231 104.441704,24.2153846 105.502,22.9923077 C106.559778,21.7653846 107.088667,20.2038462 107.088667,18.2923077 L107.066,5.34615385 L103.133333,5.38461538 Z" id="Shape" fill="#1A237E"></path>
            <path d="M112.139556,14.2884615 C111.636719,14.2834586 111.152679,14.4827938 110.794667,14.8423077 C110.07473,15.5900837 110.07473,16.7868394 110.794667,17.5346154 C111.15038,17.8981186 111.635608,18.0993308 112.139556,18.0923077 C112.648153,18.100425 113.13847,17.8993617 113.499556,17.5346154 C113.864242,17.188898 114.064023,16.6993443 114.047333,16.1923077 C114.056873,15.6787354 113.858832,15.1837102 113.499556,14.8230769 C113.134756,14.4667667 112.644893,14.2742015 112.139556,14.2884615 Z" id="Path" fill="#1A237E"></path>
            <path d="M125.977556,16.0038462 C125.272271,16.4488393 124.453259,16.671017 123.624,16.6423077 C122.455723,16.6856155 121.328978,16.1980115 120.548889,15.3115385 C119.768148,14.424359 119.377778,13.1666667 119.377778,11.5384615 C119.377778,9.91153846 119.755556,8.63076923 120.537556,7.74230769 C121.318082,6.85387924 122.442251,6.35895324 123.612667,6.38846154 C124.445664,6.35910972 125.26736,6.59141505 125.966222,7.05384615 C126.6039,7.50304925 127.079053,8.1530084 127.318667,8.90384615 L129.721333,8.90384615 C129.383717,7.62098549 128.631887,6.49111922 127.586889,5.69615385 C125.370355,4.28565172 122.583912,4.18307871 120.273111,5.42692308 C119.293133,5.99925231 118.49474,6.84546339 117.972444,7.86538462 C117.407035,9.00234343 117.127934,10.264507 117.160222,11.5384615 C117.138547,12.8079765 117.42947,14.0628081 118.006444,15.1884615 C118.53191,16.2159713 119.340736,17.0648358 120.333556,17.6307692 C121.362403,18.212704 122.522683,18.5110073 123.699556,18.4961538 C125.100252,18.5466703 126.478727,18.1292899 127.624667,17.3076923 C128.662489,16.5151105 129.418414,15.3998544 129.778,14.1307692 L127.379111,14.1307692 C127.106071,14.8835797 126.617933,15.5359405 125.977556,16.0038462 L125.977556,16.0038462 Z" id="Path" fill="#262E71"></path>
            <path d="M142.225778,5.38461538 C140.071533,4.23558724 137.50069,4.23558724 135.346444,5.38461538 C134.327235,5.94593734 133.487986,6.79370035 132.928667,7.82692308 C132.32288,8.95170505 132.014367,10.2173685 132.033333,11.5 C132.010805,12.7679243 132.300424,14.0214161 132.875778,15.1461538 C133.413376,16.1837489 134.236541,17.039189 135.244444,17.6076923 C136.285367,18.1898055 137.456951,18.4866775 138.644444,18.4692308 C139.869939,18.4858268 141.078858,18.179783 142.154,17.5807692 C143.198621,17.0077126 144.069841,16.1552994 144.673778,15.1153846 C145.295867,14.0142263 145.614337,12.7624709 145.595556,11.4923077 C145.621271,10.2147645 145.308048,8.95381146 144.688889,7.84230769 C144.108475,6.80569128 143.255447,5.95453993 142.225778,5.38461538 L142.225778,5.38461538 Z M142.603556,14.2615385 C142.209373,14.9970865 141.62381,15.6078858 140.911111,16.0269231 C140.21905,16.4244563 139.439037,16.6362246 138.644444,16.6423077 C137.8788,16.651694 137.125148,16.4482351 136.464667,16.0538462 C135.789755,15.6392831 135.25074,15.0302812 134.915778,14.3038462 C134.504881,13.4352307 134.304105,12.4791217 134.330222,11.5153846 C134.298779,10.5423947 134.50792,9.57695217 134.938444,8.70769231 C135.29017,7.97460559 135.847616,7.36423748 136.540222,6.95384615 C137.217132,6.5592359 137.985364,6.3560663 138.765333,6.36538462 C139.558805,6.35317562 140.341161,6.55628722 141.032,6.95384615 C141.745164,7.3595239 142.325737,7.96932747 142.701778,8.70769231 C143.139354,9.56688201 143.35638,10.5247897 143.332667,11.4923077 C143.339173,12.4634376 143.106694,13.4207643 142.656444,14.2769231 L142.603556,14.2615385 Z" id="Shape" fill="#262E71"></path>
            <path d="M169.958444,10.3846154 C169.982429,9.29654298 169.736878,8.21984291 169.244444,7.25384615 C168.817802,6.42817909 168.160535,5.74964697 167.355556,5.30384615 C166.541326,4.86627846 165.631674,4.64533361 164.711111,4.66153846 C162.682922,4.63770009 160.812525,5.77252648 159.868,7.6 C159.481498,6.69047562 158.819696,5.93045198 157.979111,5.43076923 C156.324593,4.48683998 154.318079,4.43929879 152.622222,5.30384615 C151.86442,5.71951272 151.236217,6.34309659 150.808889,7.10384615 L150.808889,4.91153846 L148.576222,4.91153846 L148.606444,18.3961538 L150.831556,18.3961538 L150.801333,10.7692308 C150.801333,9.41538462 151.114889,8.38076923 151.794889,7.66538462 C153.325971,6.2502924 155.662251,6.2502924 157.193333,7.66538462 C157.850667,8.38076923 158.160444,9.39230769 158.183111,10.7423077 L158.213333,18.3615385 L160.415778,18.3615385 L160.393111,10.7692308 C160.393111,9.41538462 160.706667,8.37692308 161.382889,7.66153846 C162.086156,6.9305669 163.065532,6.54490855 164.068889,6.60384615 C165.080477,6.54944189 166.067378,6.93373955 166.785111,7.66153846 C167.434889,8.37692308 167.774889,9.38846154 167.774889,10.7384615 L167.801333,18.3576923 L170,18.3576923 L169.958444,10.3846154 Z" id="Path" fill="#262E71"></path>
        </g>
    </g>
</svg>