<?xml version="1.0" encoding="utf-8"?>
<!-- Generator: Adobe Illustrator 25.2.1, SVG Export Plug-In . SVG Version: 6.00 Build 0)  -->
<svg version="1.1" id="Layer_1" xmlns="http://www.w3.org/2000/svg" xmlns:xlink="http://www.w3.org/1999/xlink" x="0px" y="0px"
	 viewBox="0 0 136.2 96.2" style="enable-background:new 0 0 136.2 96.2;" xml:space="preserve">
<style type="text/css">
	.st0{fill:none;stroke:#000000;stroke-width:0.25;stroke-miterlimit:10;}
	.st1{fill:#FFFFFF;stroke:#000000;stroke-width:0.25;stroke-miterlimit:10;}
</style>
<g id="Layer_2_1_">
	<g id="Layer_1-2">
		<path class="st0" d="M136.1,8v65.2c0,4.4-3.5,7.9-7.9,7.9h-9.1V24.5c0-4.6-3.7-8.3-8.3-8.3H84.5c-4.6,0-8.3,3.7-8.3,8.3v56.7H8
			c-4.4,0-7.9-3.5-7.9-7.9V8c0-4.4,3.5-7.9,7.9-7.9h120.2C132.6,0.1,136.1,3.7,136.1,8z"/>
		<path class="st0" d="M119.1,24.5v63.3c0,4.6-3.7,8.3-8.3,8.3H84.5c-4.6,0-8.3-3.7-8.3-8.3V24.5c0-4.6,3.7-8.3,8.3-8.3h26.3
			C115.4,16.1,119.1,19.9,119.1,24.5z"/>
		<circle class="st1" cx="19.6" cy="9.6" r="3.5"/>
		<circle class="st1" cx="28.6" cy="9.6" r="3.5"/>
		<circle class="st1" cx="10.6" cy="9.6" r="3.5"/>
		<rect x="7.1" y="25.1" class="st0" width="52" height="4"/>
		<rect x="7.1" y="33.1" class="st0" width="44" height="4"/>
	</g>
</g>
</svg>
