<?xml version="1.0" encoding="utf-8"?>
<!-- Generator: Adobe Illustrator 25.2.1, SVG Export Plug-In . SVG Version: 6.00 Build 0)  -->
<svg version="1.1" id="Layer_1" xmlns="http://www.w3.org/2000/svg" xmlns:xlink="http://www.w3.org/1999/xlink" x="0px" y="0px"
	 viewBox="0 0 1366 321" style="enable-background:new 0 0 1366 321;" xml:space="preserve">
<style type="text/css">
	.st0{fill:#FFFFFF;stroke:#000000;stroke-width:0.25;stroke-miterlimit:10;}
	.st1{fill:none;stroke:#000000;stroke-width:0.25;stroke-miterlimit:10;}
	.st2{fill:none;}
	.st3{font-family:'CourierNewPSMT';}
	.st4{font-size:11px;}
	.st5{opacity:0.64;enable-background:new    ;}
	.st6{letter-spacing:28;}
	.st7{opacity:0.71;enable-background:new    ;}
</style>
<rect x="102" y="111" class="st0" width="3" height="3"/>
<rect x="144" y="84" class="st0" width="3" height="3"/>
<circle class="st0" cx="82.5" cy="-54.5" r="1.5"/>
<g>
	<line class="st1" x1="86.47" y1="69.02" x2="201.53" y2="103.44"/>
	<circle class="st0" cx="203.51" cy="103.57" r="1.51"/>
</g>
<path class="st0" d="M92.51,137c0,0-11.51-54,52.49-50c0,0,107,38,73,94"/>
<circle class="st0" cx="134.02" cy="14.09" r="1.5"/>
<path class="st0" d="M180,20"/>
<rect x="91" y="137" class="st0" width="3" height="3"/>
<line class="st1" x1="176" y1="227" x2="269.49" y2="124"/>
<rect x="270" y="121" class="st0" width="3" height="3"/>
<rect x="173" y="227" class="st0" width="3" height="3"/>
<rect x="217" y="178" class="st0" width="3" height="3"/>
<rect x="1055.53" y="108.09" class="st2" width="375.83" height="294.13"/>
<text transform="matrix(1 0 0 1 1055.5322 114.8276)" class="st3 st4">&lt;body&gt;</text>
<text transform="matrix(1 0 0 1 1055.5322 128.0276)" class="st3 st4">&lt;nav&gt;</text>
<text transform="matrix(1 0 0 1 1055.5322 141.2276)" class="st3 st4">&lt;div class=&quot;menu-open&quot;&gt;</text>
<text transform="matrix(1 0 0 1 1055.5322 154.4276)" class="st3 st4">&lt;div class=&quot;burger-line&quot;&gt;&lt;/div&gt;</text>
<text transform="matrix(1 0 0 1 1055.5322 180.8276)" class="st5 st3 st4">&lt;/div&gt;</text>
<text transform="matrix(1 0 0 1 1055.5322 207.2276)" class="st5 st3 st4">&lt;ul class=&quot;menu&quot;&gt;</text>
<text transform="matrix(1 0 0 1 1055.5322 233.6276)" class="st5 st3 st4 st6"> </text>
<text transform="matrix(1 0 0 1 1091.5322 233.6276)" class="st5 st3 st4">...</text>
<text transform="matrix(1 0 0 1 1055.5322 246.8276)" class="st5 st3 st4 st6"> </text>
<text transform="matrix(1 0 0 1 1055.5322 260.0276)" class="st7 st3 st4">&lt;/ul&gt;</text>
<text transform="matrix(1 0 0 1 1055.5322 273.2276)" class="st7 st3 st4">&lt;/body&gt;</text>
</svg>
