<?xml version="1.0" encoding="utf-8"?>
<!-- Generator: Adobe Illustrator 25.2.1, SVG Export Plug-In . SVG Version: 6.00 Build 0)  -->
<svg version="1.1" id="Layer_1" xmlns="http://www.w3.org/2000/svg" xmlns:xlink="http://www.w3.org/1999/xlink" x="0px" y="0px"
	 viewBox="0 0 207 186" style="enable-background:new 0 0 207 186;" xml:space="preserve">
<style type="text/css">
	.st0{fill:#FFFFFF;stroke:#000000;stroke-width:0.25;stroke-miterlimit:10;}
	.st1{opacity:0.69;fill:none;stroke:#000000;stroke-width:0.25;stroke-miterlimit:10;}
</style>
<rect x="27" y="56" class="st0" width="3" height="3"/>
<rect x="69" y="29" class="st0" width="3" height="3"/>
<circle class="st0" cx="-53.5" cy="-54.5" r="1.5"/>
<g>
	<line class="st0" x1="11.47" y1="14.02" x2="126.53" y2="48.44"/>
	<circle class="st0" cx="128.51" cy="48.57" r="1.51"/>
</g>
<path class="st0" d="M17.51,82C17.51,82,6,28,70,32c0,0,107,38,73,94"/>
<circle class="st0" cx="12.02" cy="14.09" r="1.5"/>
<path class="st0" d="M58,20"/>
<rect x="16" y="82" class="st0" width="3" height="3"/>
<line class="st0" x1="101" y1="172" x2="194.49" y2="69"/>
<rect x="195" y="66" class="st0" width="3" height="3"/>
<rect x="98" y="172" class="st0" width="3" height="3"/>
<rect x="142" y="123" class="st0" width="3" height="3"/>
<rect x="933.53" y="108.09" style="fill:none;" width="375.83" height="294.13"/>
<text transform="matrix(1 0 0 1 933.5322 114.8276)" style="opacity:0.31;"><tspan x="0" y="0" style="font-family:'CourierNewPSMT'; font-size:11px;">&lt;body&gt;</tspan><tspan x="0" y="13.2" style="font-family:'CourierNewPSMT'; font-size:11px;">&lt;nav&gt;</tspan><tspan x="0" y="26.4" style="font-family:'CourierNewPSMT'; font-size:11px;">&lt;div class=&quot;menu-open&quot;&gt;</tspan><tspan x="0" y="39.6" style="font-family:'CourierNewPSMT'; font-size:11px;">&lt;div class=&quot;burger-line&quot;&gt;&lt;/div&gt;</tspan><tspan x="0" y="66" style="opacity:0.64; font-family:'CourierNewPSMT'; font-size:11px;">&lt;/div&gt;</tspan><tspan x="0" y="92.4" style="opacity:0.64; font-family:'CourierNewPSMT'; font-size:11px;">&lt;ul class=&quot;menu&quot;&gt;</tspan><tspan x="0" y="118.8" style="opacity:0.64; font-family:'CourierNewPSMT'; font-size:11px; letter-spacing:29;">	</tspan><tspan x="36" y="118.8" style="opacity:0.64; font-family:'CourierNewPSMT'; font-size:11px;">...</tspan><tspan x="0" y="132" style="opacity:0.64; font-family:'CourierNewPSMT'; font-size:11px; letter-spacing:29;">	</tspan><tspan x="0" y="145.2" style="opacity:0.71; font-family:'CourierNewPSMT'; font-size:11px;">&lt;/ul&gt;</tspan><tspan x="0" y="158.4" style="opacity:0.71; font-family:'CourierNewPSMT'; font-size:11px;">&lt;/body&gt;</tspan></text>
<line class="st1" x1="802" y1="60" x2="802" y2="75.66"/>
</svg>
