<?xml version="1.0" encoding="utf-8"?>
<!-- Generator: Adobe Illustrator 25.2.1, SVG Export Plug-In . SVG Version: 6.00 Build 0)  -->
<svg version="1.1" id="Layer_1" xmlns="http://www.w3.org/2000/svg" xmlns:xlink="http://www.w3.org/1999/xlink" x="0px" y="0px"
	 viewBox="0 0 203 181" style="enable-background:new 0 0 203 181;" xml:space="preserve">
<style type="text/css">
	.st0{fill:#FFFFFF;stroke:#000000;stroke-width:0.25;stroke-miterlimit:10;}
</style>
<rect x="21" y="53" class="st0" width="3" height="3"/>
<rect x="63" y="26" class="st0" width="3" height="3"/>
<circle class="st0" cx="1.5" cy="-112.5" r="1.5"/>
<g>
	<line class="st0" x1="5.47" y1="11.02" x2="120.53" y2="45.44"/>
	<circle class="st0" cx="122.51" cy="45.57" r="1.51"/>
</g>
<path class="st0" d="M11.51,79C11.51,79,0,25,64,29c0,0,107,38,73,94"/>
<circle class="st0" cx="53.02" cy="-43.91" r="1.5"/>
<path class="st0" d="M99-38"/>
<rect x="10" y="79" class="st0" width="3" height="3"/>
<line class="st0" x1="95" y1="169" x2="188.49" y2="66"/>
<rect x="189" y="63" class="st0" width="3" height="3"/>
<rect x="92" y="169" class="st0" width="3" height="3"/>
<rect x="136" y="120" class="st0" width="3" height="3"/>
<rect x="974.53" y="50.09" style="fill:none;" width="375.83" height="294.13"/>
<text transform="matrix(1 0 0 1 974.5322 56.8276)" style="opacity:0.31;"><tspan x="0" y="0" style="font-family:'CourierNewPSMT'; font-size:11px;">&lt;body&gt;</tspan><tspan x="0" y="13.2" style="font-family:'CourierNewPSMT'; font-size:11px;">&lt;nav&gt;</tspan><tspan x="0" y="26.4" style="font-family:'CourierNewPSMT'; font-size:11px;">&lt;div class=&quot;menu-open&quot;&gt;</tspan><tspan x="0" y="39.6" style="font-family:'CourierNewPSMT'; font-size:11px;">&lt;div class=&quot;burger-line&quot;&gt;&lt;/div&gt;</tspan><tspan x="0" y="66" style="opacity:0.64; font-family:'CourierNewPSMT'; font-size:11px;">&lt;/div&gt;</tspan><tspan x="0" y="92.4" style="opacity:0.64; font-family:'CourierNewPSMT'; font-size:11px;">&lt;ul class=&quot;menu&quot;&gt;</tspan><tspan x="0" y="118.8" style="opacity:0.64; font-family:'CourierNewPSMT'; font-size:11px; letter-spacing:29;">	</tspan><tspan x="36" y="118.8" style="opacity:0.64; font-family:'CourierNewPSMT'; font-size:11px;">...</tspan><tspan x="0" y="132" style="opacity:0.64; font-family:'CourierNewPSMT'; font-size:11px; letter-spacing:29;">	</tspan><tspan x="0" y="145.2" style="opacity:0.71; font-family:'CourierNewPSMT'; font-size:11px;">&lt;/ul&gt;</tspan><tspan x="0" y="158.4" style="opacity:0.71; font-family:'CourierNewPSMT'; font-size:11px;">&lt;/body&gt;</tspan></text>
</svg>
