<svg xmlns="http://www.w3.org/2000/svg" viewBox="0 0 65.15 38.59"><defs><style>.cls-1{fill:none;stroke:#000;stroke-miterlimit:10;stroke-width:0.25px;}</style></defs><g id="Layer_2" data-name="Layer 2"><g id="Layer_1-2" data-name="Layer 1"><path class="cls-1" d="M52.68,31.08a3.42,3.42,0,0,1-3.16,2.61c-8.07.41-33.27,1.42-36.62-1.93s-.84-10.44,0-12.45c8.4,2.51,17.8,5.21,19.61,5.29,1.25.06,5.86-1.78,11.19-4.14,2.68-1.18,5.53-2.49,8.24-3.76l.07.06C55,19.66,53.64,27.16,52.68,31.08Z"/><path class="cls-1" d="M65,8c-1.16.57-6.24,3.05-12,5.74-2.71,1.27-5.56,2.58-8.24,3.76-5.33,2.36-9.94,4.2-11.19,4.14-1.81-.08-11.21-2.78-19.61-5.29C7.46,14.39,1.62,12.58.21,12.15a.14.14,0,0,1,0-.25L26.9.76c6-3,34.91,5.45,38.05,7A.13.13,0,0,1,65,8Z"/><path class="cls-1" d="M32.58,10.55s-3.33,1.64,0,2.43S33.25,10.33,32.58,10.55Z"/><path class="cls-1" d="M34.41,11.55s17.09-1.24,21.79,0,3.7,23.22,3.7,23.22a7.47,7.47,0,0,0-3,3c-1,2,1.18-1,3.09,0s3.09-.34,0-2.17"/></g></g></svg>